<?xml version="1.0" encoding="utf-8"?><svg xmlns="http://www.w3.org/2000/svg" xmlns:xlink="http://www.w3.org/1999/xlink"><symbol viewBox="0 0 24 24" id="arduino" xmlns="http://www.w3.org/2000/svg"><path d="M18.087 6.146c-.3 0-.607.017-.907.069-2.532.367-4.23 2.239-5.18 3.674-.95-1.435-2.648-3.307-5.18-3.674a6.49 6.49 0 0 0-.907-.069C2.648 6.146 0 8.77 0 12s2.656 5.854 5.913 5.854c.3 0 .607-.017.916-.069 2.531-.376 4.23-2.247 5.18-3.683.949 1.436 2.647 3.307 5.18 3.683.299.043.607.069.915.069C21.344 17.854 24 15.23 24 12s-2.656-5.854-5.913-5.854zM6.53 15.734a3.837 3.837 0 0 1-.625.043c-2.148 0-3.889-1.7-3.889-3.777 0-2.085 1.749-3.777 3.898-3.777.208 0 .416.017.624.043 2.39.35 3.847 2.768 4.347 3.734-.508.974-1.974 3.384-4.355 3.734zm11.558.043c-.208 0-.416-.017-.624-.043-2.39-.35-3.856-2.768-4.347-3.734.491-.966 1.957-3.384 4.347-3.734.208-.026.416-.043.624-.043 2.149 0 3.89 1.7 3.89 3.777 0 2.085-1.75 3.777-3.89 3.777zm1.65-4.404v1.134h-1.205v1.182h-1.156v-1.182H16.17v-1.134h1.206V10.19h1.156v1.183h1.206zM4.246 12.498H7.82v-1.125H4.245v1.125z"/></symbol><symbol viewBox="0 0 24 24" id="astro" xmlns="http://www.w3.org/2000/svg"><path d="M8.358 20.162c-1.186-1.07-1.532-3.316-1.038-4.944.856 1.026 2.043 1.352 3.272 1.535 1.897.283 3.76.177 5.522-.678.202-.098.388-.229.608-.36.166.473.209.95.151 1.437-.14 1.185-.738 2.1-1.688 2.794-.38.277-.782.525-1.175.787-1.205.804-1.531 1.747-1.078 3.119l.044.148a3.158 3.158 0 0 1-1.407-1.188 3.31 3.31 0 0 1-.544-1.815c-.004-.32-.004-.642-.048-.958-.106-.769-.472-1.113-1.161-1.133-.707-.02-1.267.411-1.415 1.09-.012.053-.028.104-.045.165h.002zm-5.961-4.445s3.24-1.575 6.49-1.575l2.451-7.565c.092-.366.36-.614.662-.614.302 0 .57.248.662.614l2.45 7.565c3.85 0 6.491 1.575 6.491 1.575L16.088.727C15.93.285 15.663 0 15.303 0H8.697c-.36 0-.615.285-.784.727l-5.516 14.99z"/></symbol><symbol viewBox="0 0 24 24" id="c" xmlns="http://www.w3.org/2000/svg"><path d="M16.592 9.196s-.354-3.298-3.627-3.39c-3.274-.09-4.955 2.474-4.955 6.14 0 3.665 1.858 6.597 5.045 6.597 3.184 0 3.538-3.665 3.538-3.665l6.104.365s.36 3.31-2.196 5.836c-2.552 2.524-5.69 2.937-7.876 2.92-2.19-.016-5.226.035-8.16-2.97-2.938-3.01-3.436-5.93-3.436-8.8 0-2.87.556-6.67 4.047-9.55C7.444.72 9.849 0 12.254 0c10.042 0 10.717 9.26 10.717 9.26z"/></symbol><symbol viewBox="0 0 24 24" id="cpp" xmlns="http://www.w3.org/2000/svg"><path d="M22.394 6c-.167-.29-.398-.543-.652-.69L12.926.22c-.509-.294-1.34-.294-1.848 0L2.26 5.31c-.508.293-.923 1.013-.923 1.6v10.18c0 .294.104.62.271.91.167.29.398.543.652.69l8.816 5.09c.508.293 1.34.293 1.848 0l8.816-5.09c.254-.147.485-.4.652-.69.167-.29.27-.616.27-.91V6.91c.003-.294-.1-.62-.268-.91zM12 19.11c-3.92 0-7.109-3.19-7.109-7.11 0-3.92 3.19-7.11 7.11-7.11a7.133 7.133 0 0 1 6.156 3.553l-3.076 1.78a3.567 3.567 0 0 0-3.08-1.78A3.56 3.56 0 0 0 8.444 12 3.56 3.56 0 0 0 12 15.555a3.57 3.57 0 0 0 3.08-1.778l3.078 1.78A7.135 7.135 0 0 1 12 19.11zm7.11-6.715h-.79v.79h-.79v-.79h-.79v-.79h.79v-.79h.79v.79h.79zm2.962 0h-.79v.79h-.79v-.79h-.79v-.79h.79v-.79h.79v.79h.79z"/></symbol><symbol viewBox="0 0 24 24" id="js" xmlns="http://www.w3.org/2000/svg"><path d="M0 0h24v24H0V0zm22.034 18.276c-.175-1.095-.888-2.015-3.003-2.873-.736-.345-1.554-.585-1.797-1.14-.091-.33-.105-.51-.046-.705.15-.646.915-.84 1.515-.66.39.12.75.42.976.9 1.034-.676 1.034-.676 1.755-1.125-.27-.42-.404-.601-.586-.78-.63-.705-1.469-1.065-2.834-1.034l-.705.089c-.676.165-1.32.525-1.71 1.005-1.14 1.291-.811 3.541.569 4.471 1.365 1.02 3.361 1.244 3.616 2.205.24 1.17-.87 1.545-1.966 1.41-.811-.18-1.26-.586-1.755-1.336l-1.83 1.051c.21.48.45.689.81 1.109 1.74 1.756 6.09 1.666 6.871-1.004.029-.09.24-.705.074-1.65l.046.067zm-8.983-7.245h-2.248c0 1.938-.009 3.864-.009 5.805 0 1.232.063 2.363-.138 2.711-.33.689-1.18.601-1.566.48-.396-.196-.597-.466-.83-.855-.063-.105-.11-.196-.127-.196l-1.825 1.125c.305.63.75 1.172 1.324 1.517.855.51 2.004.675 3.207.405.783-.226 1.458-.691 1.811-1.411.51-.93.402-2.07.397-3.346.012-2.054 0-4.109 0-6.179l.004-.056z"/></symbol><symbol viewBox="0 0 24 24" id="python" xmlns="http://www.w3.org/2000/svg"><path d="m14.25.18.9.2.73.26.59.3.45.32.34.34.25.34.16.33.1.3.04.26.02.2-.01.13V8.5l-.05.63-.13.55-.21.46-.26.38-.3.31-.33.25-.35.19-.35.14-.33.1-.3.07-.26.04-.21.02H8.77l-.69.05-.59.14-.5.22-.41.27-.33.32-.27.35-.2.36-.15.37-.1.35-.07.32-.04.27-.02.21v3.06H3.17l-.21-.03-.28-.07-.32-.12-.35-.18-.36-.26-.36-.36-.35-.46-.32-.59-.28-.73-.21-.88-.14-1.05-.05-1.23.06-1.22.16-1.04.24-.87.32-.71.36-.57.4-.44.42-.33.42-.24.4-.16.36-.1.32-.05.24-.01h.16l.06.01h8.16v-.83H6.18l-.01-2.75-.02-.37.05-.34.11-.31.17-.28.25-.26.31-.23.38-.2.44-.18.51-.15.58-.12.64-.1.71-.06.77-.04.84-.02 1.27.05zm-6.3 1.98-.23.33-.08.41.08.41.23.34.33.22.41.09.41-.09.33-.22.23-.34.08-.41-.08-.41-.23-.33-.33-.22-.41-.09-.41.09zm13.09 3.95.28.06.32.12.35.18.36.27.36.35.35.47.32.59.28.73.21.88.14 1.04.05 1.23-.06 1.23-.16 1.04-.24.86-.32.71-.36.57-.4.45-.42.33-.42.24-.4.16-.36.09-.32.05-.24.02-.16-.01h-8.22v.82h5.84l.01 2.76.02.36-.05.34-.11.31-.17.29-.25.25-.31.24-.38.2-.44.17-.51.15-.58.13-.64.09-.71.07-.77.04-.84.01-1.27-.04-1.07-.14-.9-.2-.73-.25-.59-.3-.45-.33-.34-.34-.25-.34-.16-.33-.1-.3-.04-.25-.02-.2.01-.13v-5.34l.05-.64.13-.54.21-.46.26-.38.3-.32.33-.24.35-.2.35-.14.33-.1.3-.06.26-.04.21-.02.13-.01h5.84l.69-.05.59-.14.5-.21.41-.28.33-.32.27-.35.2-.36.15-.36.1-.35.07-.32.04-.28.02-.21V6.07h2.09l.14.01zm-6.47 14.25-.23.33-.08.41.08.41.23.33.33.23.41.08.41-.08.33-.23.23-.33.08-.41-.08-.41-.23-.33-.33-.23-.41-.08-.41.08z"/></symbol><symbol viewBox="0 0 24 24" id="react" xmlns="http://www.w3.org/2000/svg"><path d="M14.23 12.004a2.236 2.236 0 0 1-2.235 2.236 2.236 2.236 0 0 1-2.236-2.236 2.236 2.236 0 0 1 2.235-2.236 2.236 2.236 0 0 1 2.236 2.236zm2.648-10.69c-1.346 0-3.107.96-4.888 2.622-1.78-1.653-3.542-2.602-4.887-2.602-.41 0-.783.093-1.106.278-1.375.793-1.683 3.264-.973 6.365C1.98 8.917 0 10.42 0 12.004c0 1.59 1.99 3.097 5.043 4.03-.704 3.113-.39 5.588.988 6.38.32.187.69.275 1.102.275 1.345 0 3.107-.96 4.888-2.624 1.78 1.654 3.542 2.603 4.887 2.603.41 0 .783-.09 1.106-.275 1.374-.792 1.683-3.263.973-6.365C22.02 15.096 24 13.59 24 12.004c0-1.59-1.99-3.097-5.043-4.032.704-3.11.39-5.587-.988-6.38a2.167 2.167 0 0 0-1.092-.278zm-.005 1.09v.006c.225 0 .406.044.558.127.666.382.955 1.835.73 3.704-.054.46-.142.945-.25 1.44a23.476 23.476 0 0 0-3.107-.534A23.892 23.892 0 0 0 12.769 4.7c1.592-1.48 3.087-2.292 4.105-2.295zm-9.77.02c1.012 0 2.514.808 4.11 2.28-.686.72-1.37 1.537-2.02 2.442a22.73 22.73 0 0 0-3.113.538 15.02 15.02 0 0 1-.254-1.42c-.23-1.868.054-3.32.714-3.707.19-.09.4-.127.563-.132zm4.882 3.05c.455.468.91.992 1.36 1.564-.44-.02-.89-.034-1.345-.034-.46 0-.915.01-1.36.034.44-.572.895-1.096 1.345-1.565zM12 8.1c.74 0 1.477.034 2.202.093.406.582.802 1.203 1.183 1.86.372.64.71 1.29 1.018 1.946-.308.655-.646 1.31-1.013 1.95-.38.66-.773 1.288-1.18 1.87a25.64 25.64 0 0 1-4.412.005 26.64 26.64 0 0 1-1.183-1.86c-.372-.64-.71-1.29-1.018-1.946a25.17 25.17 0 0 1 1.013-1.954c.38-.66.773-1.286 1.18-1.868A25.245 25.245 0 0 1 12 8.098zm-3.635.254c-.24.377-.48.763-.704 1.16-.225.39-.435.782-.635 1.174-.265-.656-.49-1.31-.676-1.947.64-.15 1.315-.283 2.015-.386zm7.26 0c.695.103 1.365.23 2.006.387-.18.632-.405 1.282-.66 1.933a25.952 25.952 0 0 0-1.345-2.32zm3.063.675c.484.15.944.317 1.375.498 1.732.74 2.852 1.708 2.852 2.476-.005.768-1.125 1.74-2.857 2.475-.42.18-.88.342-1.355.493a23.966 23.966 0 0 0-1.1-2.98c.45-1.017.81-2.01 1.085-2.964zm-13.395.004c.278.96.645 1.957 1.1 2.98a23.142 23.142 0 0 0-1.086 2.964c-.484-.15-.944-.318-1.37-.5-1.732-.737-2.852-1.706-2.852-2.474 0-.768 1.12-1.742 2.852-2.476.42-.18.88-.342 1.356-.494zm11.678 4.28c.265.657.49 1.312.676 1.948-.64.157-1.316.29-2.016.39a25.819 25.819 0 0 0 1.341-2.338zm-9.945.02c.2.392.41.783.64 1.175.23.39.465.772.705 1.143a22.005 22.005 0 0 1-2.006-.386c.18-.63.406-1.282.66-1.933zM17.92 16.32c.112.493.2.968.254 1.423.23 1.868-.054 3.32-.714 3.708-.147.09-.338.128-.563.128-1.012 0-2.514-.807-4.11-2.28.686-.72 1.37-1.536 2.02-2.44 1.107-.118 2.154-.3 3.113-.54zm-11.83.01c.96.234 2.006.415 3.107.532.66.905 1.345 1.727 2.035 2.446-1.595 1.483-3.092 2.295-4.11 2.295a1.185 1.185 0 0 1-.553-.132c-.666-.38-.955-1.834-.73-3.703.054-.46.142-.944.25-1.438zm4.56.64c.44.02.89.034 1.345.034.46 0 .915-.01 1.36-.034-.44.572-.895 1.095-1.345 1.565-.455-.47-.91-.993-1.36-1.565z"/></symbol><symbol viewBox="0 0 24 24" id="rust" xmlns="http://www.w3.org/2000/svg"><path d="m23.835 11.703-1.008-.623a13.727 13.727 0 0 0-.028-.294l.866-.807a.348.348 0 0 0-.116-.578l-1.106-.414a8.496 8.496 0 0 0-.087-.285l.69-.96a.346.346 0 0 0-.226-.544l-1.166-.19a9.357 9.357 0 0 0-.14-.261l.49-1.076a.344.344 0 0 0-.028-.336.349.349 0 0 0-.3-.154l-1.185.041a6.744 6.744 0 0 0-.188-.227l.273-1.153a.347.347 0 0 0-.417-.417l-1.153.273a14.018 14.018 0 0 0-.228-.188l.041-1.184a.344.344 0 0 0-.49-.328l-1.076.49-.262-.14-.19-1.167a.348.348 0 0 0-.545-.226l-.96.69a8.487 8.487 0 0 0-.285-.086L14.597.453a.348.348 0 0 0-.578-.116l-.807.867a9.294 9.294 0 0 0-.294-.028L12.295.168a.346.346 0 0 0-.59 0l-.623 1.008a13.738 13.738 0 0 0-.294.028L9.98.337a.346.346 0 0 0-.578.116l-.414 1.106-.285.086-.959-.69a.348.348 0 0 0-.545.226l-.19 1.167a9.357 9.357 0 0 0-.262.14l-1.076-.49a.346.346 0 0 0-.49.328l.041 1.184a7.983 7.983 0 0 0-.228.187l-1.153-.272a.347.347 0 0 0-.417.417l.271 1.153-.186.227-1.184-.042a.346.346 0 0 0-.328.49l.49 1.077a9.167 9.167 0 0 0-.14.262l-1.166.19a.348.348 0 0 0-.226.544l.69.958a13.303 13.303 0 0 0-.087.286l-1.106.414a.348.348 0 0 0-.116.578l.866.807a9.294 9.294 0 0 0-.028.294l-1.008.623a.344.344 0 0 0 0 .59l1.008.623c.008.098.018.196.028.294l-.866.807a.346.346 0 0 0 .116.578l1.106.415c.028.096.057.191.087.285l-.69.959a.345.345 0 0 0 .227.544l1.166.19c.046.088.092.175.14.262l-.49 1.076a.346.346 0 0 0 .328.49l1.183-.041c.062.077.124.152.187.227l-.27 1.154a.346.346 0 0 0 .416.417l1.153-.272c.075.064.151.126.228.187l-.041 1.184a.344.344 0 0 0 .49.327l1.076-.49c.087.049.174.095.262.14l.19 1.167a.348.348 0 0 0 .545.227l.959-.69a9.299 9.299 0 0 0 .285.086l.414 1.107a.345.345 0 0 0 .578.115l.808-.865.294.03.623 1.006a.347.347 0 0 0 .59 0l.623-1.007c.098-.009.197-.018.294-.03l.807.866a.348.348 0 0 0 .578-.115l.414-1.107a8.463 8.463 0 0 0 .285-.087l.959.69a.345.345 0 0 0 .545-.226l.19-1.166.262-.14 1.076.49a.347.347 0 0 0 .49-.328l-.041-1.184a6.727 6.727 0 0 0 .227-.187l1.153.272a.347.347 0 0 0 .417-.416l-.272-1.155c.063-.075.126-.15.187-.227l1.184.041a.344.344 0 0 0 .328-.49l-.49-1.076c.048-.087.095-.174.141-.262l1.166-.19a.348.348 0 0 0 .226-.544l-.69-.959.087-.285 1.106-.414a.346.346 0 0 0 .116-.579l-.866-.807c.01-.098.02-.196.028-.294l1.008-.624a.344.344 0 0 0 0-.589zm-6.742 8.355a.714.714 0 0 1 .299-1.396.714.714 0 1 1-.3 1.396zm-.342-2.314a.649.649 0 0 0-.771.5l-.358 1.669a8.73 8.73 0 0 1-3.619.78 8.737 8.737 0 0 1-3.695-.815L7.95 18.21a.648.648 0 0 0-.772-.5l-1.473.317a8.722 8.722 0 0 1-.761-.898h7.167c.081 0 .136-.014.136-.088v-2.536c0-.074-.054-.088-.136-.088h-2.096v-1.608h2.268c.206 0 1.106.059 1.393 1.209.09.353.288 1.504.424 1.873.134.413.683 1.238 1.268 1.238h3.572a.75.75 0 0 0 .13-.013 8.787 8.787 0 0 1-.813.952zm-9.914 2.28a.714.714 0 1 1-.3-1.396.714.714 0 0 1 .3 1.396zM4.117 8.997a.714.714 0 1 1-1.303.58.714.714 0 0 1 1.304-.58zm-.834 1.981 1.534-.682a.65.65 0 0 0 .33-.858l-.316-.715h1.244v5.602H3.567a8.775 8.775 0 0 1-.284-3.348zm6.734-.543V8.784h2.96c.153 0 1.08.177 1.08.87 0 .574-.712.78-1.296.78zm10.757 1.486c0 .219-.008.436-.024.651h-.9c-.09 0-.127.059-.127.148v.413c0 .973-.548 1.184-1.03 1.238-.457.052-.964-.191-1.027-.472-.27-1.518-.72-1.843-1.43-2.403.882-.56 1.799-1.386 1.799-2.492 0-1.193-.82-1.945-1.377-2.315-.783-.516-1.65-.62-1.883-.62H5.468a8.765 8.765 0 0 1 4.907-2.77l1.098 1.152a.648.648 0 0 0 .918.02l1.227-1.173a8.775 8.775 0 0 1 6.004 4.276l-.84 1.898a.652.652 0 0 0 .33.859l1.618.718c.028.288.042.577.042.872zm-9.3-9.6a.713.713 0 1 1 .984 1.032.714.714 0 0 1-.984-1.031zm8.339 6.71a.71.71 0 0 1 .939-.362.714.714 0 1 1-.94.364z"/></symbol><symbol viewBox="0 0 24 24" id="svelte" xmlns="http://www.w3.org/2000/svg"><path d="M10.354 21.125a4.44 4.44 0 0 1-4.765-1.767 4.109 4.109 0 0 1-.703-3.107 3.898 3.898 0 0 1 .134-.522l.105-.321.287.21a7.21 7.21 0 0 0 2.186 1.092l.208.063-.02.208a1.253 1.253 0 0 0 .226.83 1.337 1.337 0 0 0 1.435.533 1.231 1.231 0 0 0 .343-.15l5.59-3.562a1.164 1.164 0 0 0 .524-.778 1.242 1.242 0 0 0-.211-.937 1.338 1.338 0 0 0-1.435-.533 1.23 1.23 0 0 0-.343.15l-2.133 1.36a4.078 4.078 0 0 1-1.135.499 4.44 4.44 0 0 1-4.765-1.766 4.108 4.108 0 0 1-.702-3.108 3.855 3.855 0 0 1 1.742-2.582l5.589-3.563a4.072 4.072 0 0 1 1.135-.499 4.44 4.44 0 0 1 4.765 1.767 4.109 4.109 0 0 1 .703 3.107 3.943 3.943 0 0 1-.134.522l-.105.321-.286-.21a7.204 7.204 0 0 0-2.187-1.093l-.208-.063.02-.207a1.255 1.255 0 0 0-.226-.831 1.337 1.337 0 0 0-1.435-.532 1.231 1.231 0 0 0-.343.15L8.62 9.368a1.162 1.162 0 0 0-.524.778 1.24 1.24 0 0 0 .211.937 1.338 1.338 0 0 0 1.435.533 1.235 1.235 0 0 0 .344-.151l2.132-1.36a4.067 4.067 0 0 1 1.135-.498 4.44 4.44 0 0 1 4.765 1.766 4.108 4.108 0 0 1 .702 3.108 3.857 3.857 0 0 1-1.742 2.583l-5.589 3.562a4.072 4.072 0 0 1-1.135.499m10.358-17.95C18.484-.015 14.082-.96 10.9 1.068L5.31 4.63a6.412 6.412 0 0 0-2.896 4.295 6.753 6.753 0 0 0 .666 4.336 6.43 6.43 0 0 0-.96 2.396 6.833 6.833 0 0 0 1.168 5.167c2.229 3.19 6.63 4.135 9.812 2.108l5.59-3.562a6.41 6.41 0 0 0 2.896-4.295 6.756 6.756 0 0 0-.665-4.336 6.429 6.429 0 0 0 .958-2.396 6.831 6.831 0 0 0-1.167-5.168Z"/></symbol><symbol viewBox="0 0 24 24" id="ts" xmlns="http://www.w3.org/2000/svg"><path d="M1.125 0C.502 0 0 .502 0 1.125v21.75C0 23.498.502 24 1.125 24h21.75c.623 0 1.125-.502 1.125-1.125V1.125C24 .502 23.498 0 22.875 0zm17.363 9.75c.612 0 1.154.037 1.627.111a6.38 6.38 0 0 1 1.306.34v2.458a3.95 3.95 0 0 0-.643-.361 5.093 5.093 0 0 0-.717-.26 5.453 5.453 0 0 0-1.426-.2c-.3 0-.573.028-.819.086a2.1 2.1 0 0 0-.623.242c-.17.104-.3.229-.393.374a.888.888 0 0 0-.14.49c0 .196.053.373.156.529.104.156.252.304.443.444s.423.276.696.41c.273.135.582.274.926.416.47.197.892.407 1.266.628.374.222.695.473.963.753.268.279.472.598.614.957.142.359.214.776.214 1.253 0 .657-.125 1.21-.373 1.656a3.033 3.033 0 0 1-1.012 1.085 4.38 4.38 0 0 1-1.487.596c-.566.12-1.163.18-1.79.18a9.916 9.916 0 0 1-1.84-.164 5.544 5.544 0 0 1-1.512-.493v-2.63a5.033 5.033 0 0 0 3.237 1.2c.333 0 .624-.03.872-.09.249-.06.456-.144.623-.25.166-.108.29-.234.373-.38a1.023 1.023 0 0 0-.074-1.089 2.12 2.12 0 0 0-.537-.5 5.597 5.597 0 0 0-.807-.444 27.72 27.72 0 0 0-1.007-.436c-.918-.383-1.602-.852-2.053-1.405-.45-.553-.676-1.222-.676-2.005 0-.614.123-1.141.369-1.582.246-.441.58-.804 1.004-1.089a4.494 4.494 0 0 1 1.47-.629 7.536 7.536 0 0 1 1.77-.201zm-15.113.188h9.563v2.166H9.506v9.646H6.789v-9.646H3.375z"/></symbol></svg>