<svg xmlns="http://www.w3.org/2000/svg" id="a" preserveAspectRatio="none" viewBox="0 0 640 480"><defs><style>.b{fill:#121212}</style></defs><path d="M273.68 428.67c63.43-5.94 120.85-2.4 173.07 6.55-52.4-12.01-109.52-18.57-173.1-13.89-47.38 3.04-100.1 11.33-148.85 20.9 49.43-4.75 102.17-9.62 148.89-13.56Z" class="b"/><path d="M435.71 431.77c-49.8-13.54-102.94-21.84-162.19-18.77-45.74 2-95.64 13.06-141.73 26.85 46.76-8.97 96.69-16.62 141.79-19.52 59.17-4.35 112.75 1.01 162.13 11.43Z" class="b"/><path d="M118.53 443.93c51.91-.17 107.19-1.94 155.26-6.92 63.1-7.09 125.34-6.54 185.31 1.56-.23-.07-.47-.14-.7-.22-55.27-10.48-116.47-15.06-184.62-8.68-48.59 4.09-103.7 9.21-154.82 14.13-.14.04-.28.09-.42.13Z" class="b"/><path d="M114.22 445.29c53.84 4.54 110.88 6.04 159.66.04 66.9-8.68 132.28-10.07 192.25-4.57l-.67-.21c-55.74-8.08-119.95-10.6-191.57-2.55-49.08 5.09-105.68 6.83-158.54 6.94-.38.12-.75.24-1.13.36ZM111.23 444.94c-.11.02-.23.05-.34.07.18.02.37.03.55.05.12-.04.24-.08.37-.12h-.57Z" class="b"/><path d="M106.19 447.9c55.73 13.56 117.05 22.25 167.9 14.11 75.22-12.11 144.96-17.75 204.86-17.05-.88-.29-1.76-.59-2.64-.88-60.83-3.38-129.89.04-202.18 10.59-50.96 7.22-111.56 1.81-166.13-7.36-.6.2-1.21.4-1.81.59ZM95.96 447.09c.51-.11 1.02-.22 1.53-.32-.85-.22-1.7-.43-2.55-.65l-1.49.15c.84.28 1.67.55 2.51.83ZM95.28 445.08c-.35-.06-.7-.13-1.05-.19h-.02c.28.07.55.14.82.22.09 0 .17-.02.26-.02Z" class="b"/><path d="M273.99 453.67c70.92-10.34 138.73-13.84 198.73-10.79-.72-.23-1.44-.47-2.16-.7-61.13-5.99-128.04-4.74-196.55 4.14-49.57 6.1-107.65 4.46-162.25-.24-.57.18-1.13.37-1.7.55 53.99 8.96 113.67 14.16 163.92 7.04ZM103.18 445.32c-.18.02-.37.04-.55.05.28.05.56.1.84.14l.57-.12c-.29-.03-.57-.05-.86-.08ZM104.2 447.42c.51-.17 1.01-.33 1.51-.5-.75-.13-1.49-.26-2.23-.39-.52.11-1.03.22-1.55.32.75.19 1.51.38 2.26.56ZM95.51 450.33c-1.15-.45-2.31-.92-3.47-1.38-.72.15-1.43.31-2.14.46 1.18.55 2.37 1.09 3.54 1.63.69-.24 1.37-.47 2.07-.71Z" class="b"/><path d="M490.72 448.98c-1.05-.37-2.11-.73-3.16-1.1-60.01 1.43-132.16 9.25-213.19 23.44-33.62 5.99-74.9 3.47-122.69-7.5-16.26-3.73-33.28-8.45-50.98-14.1-.67.22-1.34.45-2.01.68 36.41 14.01 74.84 25.33 111.13 29.6h56.55c2.67-.38 5.32-.81 7.93-1.32 68.64-12.94 147.21-25.22 216.43-29.7ZM93.91 448.55c1.06.42 2.12.83 3.18 1.24.61-.21 1.23-.41 1.84-.62-1.04-.33-2.09-.68-3.13-1.02-.63.13-1.27.27-1.9.4ZM92.14 445.39c-.67-.17-1.33-.35-2-.52h-.92c.63.21 1.26.42 1.88.63.35-.03.69-.07 1.04-.1Z" class="b"/><path d="M171.95 480h29.48c-16.33-2.34-33.68-6.12-52.02-11.33-16.65-4.74-34.13-10.67-52.31-17.73-.73.25-1.47.5-2.2.75 18.3 8.26 35.86 15.24 52.58 20.87 8.37 2.82 16.52 5.29 24.47 7.44ZM478.15 443.18c-.41-.11-.82-.23-1.23-.34l-1.69-.18c.43.14.85.28 1.28.42.55.03 1.09.07 1.64.1ZM490.28 445.16c-.36-.09-.73-.17-1.09-.26-.57-.04-1.14-.08-1.72-.13.39.11.78.23 1.17.34.55.01 1.09.03 1.64.04ZM487.75 446.89c1.05-.02 2.1-.05 3.15-.07-.81-.24-1.63-.48-2.45-.72l-3.16-.06c.82.28 1.64.56 2.46.85ZM106.15 445.98c.53.09 1.06.18 1.6.27.42-.14.84-.27 1.26-.41-.51-.05-1.02-.09-1.54-.14l-1.32.27ZM102.4 449.15c57.45 18.16 120.39 30.35 171.79 21.19 79.88-14 151.14-21.79 210.69-23.38-.96-.33-1.92-.66-2.88-.98-60.5-.92-131.29 4.7-207.76 17.01-51.47 8.24-113.6-.7-169.86-14.5-.66.22-1.33.44-1.99.66ZM97.87 445.83c.61.16 1.23.31 1.84.46.36-.08.73-.15 1.09-.23-.64-.11-1.28-.22-1.92-.34-.34.03-.68.07-1.02.1ZM484.75 445.04c-.68-.19-1.36-.39-2.04-.58-.85-.05-1.7-.1-2.56-.16.69.23 1.37.46 2.06.69.85.01 1.69.03 2.54.05ZM97.87 447.71c.92.3 1.84.59 2.76.89.59-.2 1.19-.39 1.78-.59-.91-.23-1.81-.46-2.72-.68-.61.13-1.22.26-1.83.38ZM92.06 451.51c-1.25-.57-2.52-1.17-3.78-1.75-34.17 7.37-64.86 14.89-88.28 20.92v9.33h17.59c14.53-6.11 31.42-12.89 49.86-19.72 7.73-2.86 15.97-5.81 24.6-8.77ZM87.95.82c.6-.28 1.21-.55 1.81-.82h-7.27C77.17 3.86 72.1 8.15 67.25 12.91c6.54-4.68 13.42-8.7 20.7-12.09ZM591.06 0h-8.11c10.94 22.73 21.2 49.12 29.97 74.1-7.04-26.72-14.38-52.31-21.86-74.1ZM604.9 69.12C584.52 41.57 562.87 18 541.65 0h-9.49c10.75 7.8 21.71 16.83 32.76 27.04 13.87 12.81 27.32 27.02 39.98 42.08Z" class="b"/><path d="M581.84 0h-8.38c12.46 19.7 25.27 44.2 37.84 72.54C602.62 47.99 592.55 22.2 581.84 0ZM80.77 0h-3.2c-2.8 2.99-5.48 6.09-8.01 9.3 3.61-3.34 7.35-6.43 11.21-9.3ZM65.8 15.59c5.31-2.9 10.83-5.41 16.59-7.55 10.3-3.82 20.93-6.36 31.96-8.04H91.97c-9.09 3.88-17.63 8.69-25.69 14.62-.16.32-.33.65-.49.97ZM496.86 448.6c-.94-.28-1.89-.57-2.83-.85-1.19.02-2.39.04-3.58.07.95.33 1.9.66 2.85 1 1.19-.07 2.38-.15 3.57-.22ZM82.98 447.29c-31.29 3.06-59.87 5.93-82.98 8.27v14.09c23.1-5.95 53.22-13.32 86.77-20.58-1.27-.59-2.52-1.17-3.8-1.77ZM64.63 15.85c-.15.2-.29.41-.43.62.07-.04.14-.07.2-.11l.27-.54c-.01.01-.03.02-.04.03ZM92.23 447.88l1.69-.36c-1.02-.34-2.03-.66-3.06-1.01-.55.05-1.1.11-1.66.16 1.01.4 2.01.81 3.02 1.21Z" class="b"/><path d="M42.98 75.66c-3.39 10.35-13.04 19.08-28.76 26.07-4.14 2.98-8.88 5.71-14.21 8.2v291.33c4.61 2.78 9.28 5.56 14.01 8.32a980.203 980.203 0 0 0 37.64 20.91c3.46 1.59 6.96 3.18 10.5 4.75 3.18 1.19 6.4 2.37 9.65 3.55 3.06.88 6.15 1.75 9.27 2.61 2.71.53 5.44 1.05 8.19 1.57 3.21.33 6.43.65 9.68.96 2.69.01 5.4.02 8.12.02 2.59-.25 5.2-.5 7.81-.76 2.27-.46 4.55-.91 6.83-1.36 47.15-14.61 101.81-27.63 151.78-29.82 66.18-3.43 124.73 7.28 179.51 23.66 3.89.93 7.74 1.88 11.58 2.87 4.69.93 9.33 1.9 13.93 2.91 3.42.56 6.82 1.15 10.22 1.75 4.34.54 8.64 1.11 12.92 1.73 4.1.37 8.16.78 12.18 1.22 3.71.22 7.37.46 10.98.73 3.71.09 7.36.21 10.95.36 5.02-.05 9.96-.04 14.81.03 39.8-1.45 69.39 1.2 89.44 8.01v-213.8c-17.02-34.59-22.21-93.77-23.29-152.53-.04-.25-.09-.51-.13-.76-.14-.55-.28-1.09-.42-1.63-.17-.5-.34-1-.51-1.51-.21-.49-.41-.98-.62-1.47-.16-.3-.31-.6-.47-.9-.07-.12-.14-.23-.21-.35-15.5-19.71-32.47-38.26-50.1-54.55C552.85 17.24 541.55 7.96 530.47.01h-408.6c-20.32 2.36-39.23 7.22-56.78 17.03-8.88 18.17-15.3 37.8-21.28 56.06l-.84 2.57ZM76.05 0h-1.52c-1.18 1.87-2.33 3.77-3.44 5.7 1.6-1.95 3.26-3.84 4.96-5.7ZM84.61 444.82c.86.35 1.72.7 2.59 1.05.46-.04.91-.09 1.37-.13-.89-.3-1.78-.6-2.67-.91-.43 0-.86 0-1.28-.01ZM83.16 446.27l1.79-.18c-1.05-.43-2.1-.86-3.16-1.3-.58 0-1.16-.01-1.75-.02 1.04.5 2.08 1 3.11 1.49ZM600.08 0h-7.97c7.64 22.29 15.12 48.49 22.29 75.79-4.8-27.18-9.51-53.29-14.32-75.79ZM90.37 448.28c-1.15-.46-2.3-.91-3.45-1.38-.67.07-1.33.13-1.99.2 1.16.55 2.31 1.07 3.47 1.61.66-.14 1.32-.28 1.98-.43ZM85.93 443.74l.27.09h.07l-.34-.09ZM82.89 443.8l-2.09-.73-.58-.06c.64.26 1.28.53 1.91.79h.76ZM611.94 35.52c-1.06-12.45-2.09-24.38-3.12-35.52h-7.72c4.85 22.72 9.6 49.1 14.44 76.53-1.29-13.97-2.47-27.76-3.6-41.01ZM605.9 68.78C588.52 41.77 570.14 18.34 552.15 0h-8.97c21.06 18.02 42.52 41.45 62.72 68.78ZM609.83 0c1.03 11.12 2.05 23.02 3.11 35.43 1.14 13.27 2.32 27.09 3.61 41.08-.24-26.76.26-53.05.77-76.51h-7.49Z" class="b"/><path d="M607.81 69.91C592.96 42.55 577.54 18.85 562.46 0h-8.92c18.2 18.67 36.76 42.48 54.27 69.91Z" class="b"/><path d="M609.34 70.57C597.02 43.02 584.48 19.19 572.29 0h-8.54c15.76 19.83 31.33 44.23 45.58 70.57ZM71.1 440.42c.5.25.99.49 1.49.74l.77.09c-.55-.24-1.09-.46-1.65-.7l-.61-.12ZM7.94 103.13c2.03-.78 3.99-1.57 5.84-2.39 8.19-5.9 14.4-13.03 17.75-21.67 7.64-19.55 16.85-40.69 29.35-59.52C46.12 35.91 33.43 56.94 21.96 83.2c-3.22 7.4-7.92 14.04-14.02 19.93Z" class="b"/><path d="M11.45 86.96A79.376 79.376 0 0 1 0 104.71v1.19c1.9-.61 3.76-1.24 5.55-1.88 6.86-6.18 12.03-13.26 15.49-21.22 10.95-25.04 22.99-45.36 36.87-61.42-.08.05-.15.1-.23.15C40.3 36.74 25.19 57.89 11.45 86.97ZM19.97 415.2c4.85 2.45 9.84 4.92 14.93 7.39A1047.214 1047.214 0 0 1-.01 402.43v2.43c6.52 3.46 13.18 6.92 19.97 10.35ZM640 203.79v-19.73c-1.42-5.92-2.88-11.99-4.36-18.19-4.97-20.73-10.24-42.74-15.73-64.61 6.38 36.13 12.93 72.2 20.1 102.53ZM32.47 79.43c-2.78 7.15-7.55 13.56-14.26 19.2 12.82-6.46 20.86-14.25 23.82-23.29l.84-2.57C48.68 55 54.97 35.79 63.69 17.82c-.24.14-.49.27-.73.41-12.89 18.76-22.29 40.18-30.5 61.19ZM77.91 443.75c.46 0 .92.01 1.39.02-.91-.38-1.82-.78-2.73-1.16l-1.34-.15c.9.44 1.79.86 2.69 1.29Z" class="b"/><path d="M640 225.55V208.1c-7.51-30.99-14.33-68.45-20.97-105.99 4.68 45.43 10.94 90.52 20.97 123.45Z" class="b"/><path d="M640 239.16v-10.25c-10.63-33.31-17.14-79.94-21.98-126.89C619.58 155.2 625 207.15 640 239.16ZM3.76 106.86c1.83-.95 3.59-1.95 5.29-2.99-1.04.4-2.1.8-3.18 1.19-.69.61-1.39 1.21-2.11 1.8ZM25.93 420.82c6.61 2.79 13.49 5.6 20.57 8.39-8.87-4.15-17.86-8.52-26.98-13.13-6.63-3.35-13.14-6.73-19.51-10.11v3.53c8.37 3.78 17.04 7.57 25.93 11.32ZM0 107.05v1.49c1.12-.83 2.2-1.69 3.25-2.56-1.06.36-2.15.72-3.25 1.07ZM.95 90.72c-.3.61-.64 1.18-.95 1.78v10.61a77.926 77.926 0 0 0 10.55-16.58C22.84 60.5 36.61 40.3 52.61 25.04 33.71 38.85 16.51 59.59.95 90.72ZM493.06 449.8c-59.33 3.68-132.58 13.64-218.58 29.86-.62.12-1.25.23-1.88.34h37.44c74.79-14.37 136.3-23.9 186.66-28.92-1.21-.43-2.42-.86-3.63-1.28ZM505.46 451.25c-1.39.13-2.8.26-4.21.4 21.93 7.88 43.41 16.3 64.71 24.65 3.19 1.25 6.34 2.48 9.47 3.71h11.33c-25.98-9.91-52.95-19.87-81.3-28.75Z" class="b"/><path d="M565.59 477.22c-21.94-8.6-44.07-17.27-66.69-25.35-49.57 4.85-110.06 14.11-183.55 28.13h257.33c-2.35-.92-4.71-1.84-7.09-2.78ZM.05 90.28c16.18-32.36 34.88-55.13 57.72-69.92 1.34-1.15 2.69-2.28 4.06-3.37.96-1.03 1.93-2.04 2.91-3.03.98-1.36 1.97-2.7 2.99-4.03 1.83-3.38 3.76-6.7 5.8-9.94H0v90.38s.04-.07.05-.1ZM617.64 84.91c7.9 10.22 15.38 20.74 22.36 31.41V0h-21.68c-.57 25.91-1.12 55.28-.67 84.91ZM31.88 426.45c8.01 2.65 16.42 5.33 25.13 7.97-.11-.05-.21-.11-.32-.17-10.22-3.9-20.6-8.07-31.16-12.52-8.75-3.68-17.28-7.42-25.53-11.14v4.76c10.17 3.7 20.84 7.43 31.88 11.08ZM37.82 432.07c8.24 1.94 16.93 3.89 25.95 5.8-.61-.31-1.21-.62-1.82-.93-10.6-3.15-20.79-6.37-30.4-9.56-10.92-3.62-21.48-7.31-31.55-10.97v6.16c11.88 3.16 24.57 6.37 37.82 9.49ZM69.65 440.82c-.81-.4-1.62-.8-2.44-1.21-10.34-2.15-20.27-4.37-29.63-6.57-13.16-3.1-25.77-6.28-37.58-9.43v7.67c20.73 3.26 44.4 6.61 69.65 9.53ZM75.54 443.72c-1.08-.52-2.16-1.06-3.24-1.6-26.23-2.99-50.84-6.46-72.29-9.83v9.59c21.86.78 47.68 1.49 75.54 1.84ZM147.15 473.5c-17.05-5.74-34.96-12.88-53.64-21.35-27.54 9.44-52.61 19.26-73.16 27.84H168.2c-6.87-1.92-13.88-4.08-21.05-6.5ZM77.67 444.75c-28.68-.33-55.26-1.06-77.67-1.86v11.67c22.68-2.3 50.64-5.1 81.24-8.1-1.18-.56-2.37-1.13-3.56-1.71ZM528.75 449.39c37.86 7.1 72.56 17.35 102.86 30.61H640v-1.47c-1.13-.29-2.25-.58-3.41-.88-28.28-13.16-64.21-22.67-105.65-28.39-.73.05-1.45.09-2.19.14ZM636.61 165.64l3.39 14.15v-15.87c-5.88-20.93-12.44-42.79-19.47-64.26 5.62 22.32 11.01 44.82 16.08 65.98ZM512.08 449.66l2.47-.21c-.96-.21-1.92-.41-2.89-.62-.76.03-1.54.07-2.31.1.91.24 1.82.48 2.72.73ZM513.7 447.78c-.23-.04-.46-.07-.69-.11-.55 0-1.09-.01-1.64-.01l.87.18 1.46-.06Z" class="b"/><path d="M618.13 480h10.95c-30.76-13.22-65.95-23.38-104.33-30.33-1.07.08-2.13.15-3.22.23 33.29 7.65 65.61 17.72 96.59 30.09Z" class="b"/><path d="M514.9 450.43c31.74 8.68 61.34 18.94 89.05 29.57h11.48c-27.2-10.72-59.87-21.37-97.56-29.81-.78.06-1.54.12-2.33.18-.21.02-.43.04-.64.05ZM520.77 448.96c-.75-.13-1.5-.26-2.24-.38-.81.03-1.61.05-2.42.08.72.16 1.44.33 2.17.5.83-.07 1.67-.13 2.5-.19ZM502.98 450.47c-1.14-.35-2.28-.7-3.43-1.06-1.29.07-2.6.15-3.9.23 1.13.4 2.27.8 3.4 1.21 1.32-.13 2.63-.26 3.94-.38ZM499.76 448.44c1.03-.06 2.06-.12 3.08-.17l-2.33-.6c-1.05 0-2.1.02-3.15.03.8.24 1.6.49 2.4.73ZM501.21 446.68c-.36-.07-.72-.14-1.07-.21-.13 0-.25-.01-.38-.02.31.08.62.15.92.23h.53ZM509.15 449.91c-1.04-.28-2.09-.55-3.13-.83l-3.55.18c1.04.32 2.07.65 3.11.97 1.2-.11 2.39-.22 3.57-.32ZM507.84 448.03c-.62-.13-1.24-.26-1.86-.38h-1.55c.59.15 1.18.31 1.77.46.55-.03 1.09-.05 1.64-.08Z" class="b"/><path d="M601.14 480c-27.75-10.58-57.38-20.76-89.16-29.33-1.3.11-2.61.22-3.93.34 28.42 8.99 55.46 19.02 81.51 28.98h11.58ZM622.68 96.53A706.486 706.486 0 0 1 640 134.97v-5.63a603.496 603.496 0 0 0-17.06-32.36c-.08-.15-.17-.3-.26-.45ZM623.38 95.75c.14.25.28.49.42.74a594.033 594.033 0 0 1 16.19 30.61v-4.06a517.88 517.88 0 0 0-15.79-26.02c-.27-.42-.55-.84-.83-1.26ZM640 160.23v-11.36c-5.74-16.85-12.11-34.01-18.95-50.83 6.82 20.74 13.2 41.87 18.95 62.19ZM625.05 96.46c5.31 8.21 10.29 16.41 14.95 24.56v-2.86c-4.77-7.35-9.79-14.63-15.02-21.8.02.03.04.06.06.1ZM621.56 96.64s.02.05.03.07c6.62 16.22 12.8 32.76 18.41 49.05v-8.03A711.502 711.502 0 0 0 621.75 97c-.06-.12-.12-.24-.18-.37ZM640 466.52v-4.68c-19.74-8.15-48.3-12.64-85.15-13.5 35.78 2.74 64.57 8.8 85.15 18.18Z" class="b"/><path d="M640 460.76v-4.44c-16.71-5.76-40.21-8.57-70.92-8.46 28.47 1.48 52.85 5.5 70.92 12.89ZM496.71 446.72c-.59-.15-1.18-.3-1.77-.44-.86-.03-1.72-.05-2.59-.08.62.18 1.23.37 1.85.55l2.51-.03ZM525.95 448.59l-1.43-.18c-.35 0-.69.01-1.04.02l1.33.24c.38-.03.76-.05 1.14-.08ZM535.89 448.95c39.5 5.79 73.82 15.09 101.04 27.76 1.04.28 2.05.53 3.07.79v-4.02c-25.29-12.29-60.43-20.52-103.05-24.6l-1.06.06Z" class="b"/><path d="M640 472.39v-4.77c-22.53-10.39-55.08-16.73-96.03-19.01 39.42 4.27 72.06 12.23 96.03 23.78Z" class="b"/></svg>