<?xml version="1.0" encoding="UTF-8"?>
<!-- Created with Inkscape (http://www.inkscape.org/) -->
<svg width="297mm" height="210mm" version="1.1" viewBox="0 0 297 210" xmlns="http://www.w3.org/2000/svg">
 <path d="m52.149 148.41c-2.4439 1e-5 -4.8727 0.38473-7.197 1.14-2.3241 0.75514-4.5151 1.8714-6.4921 3.3078-1.977 1.4364-3.7157 3.1751-5.1521 5.1521-1.4364 1.977-2.5527 4.168-3.3078 6.4921-0.75525 2.3243-1.14 4.7531-1.14 7.197 9.9e-5 1.8949-0.37306 3.7714-1.0981 5.5221-0.7253 1.7507-1.7884 3.3415-3.1285 4.6814-1.3399 1.3399-2.9307 2.4028-4.6814 3.128-1.7506 0.72499-3.6269 1.0982-5.5216 1.0981-1.8949 1e-4 -3.7714-0.37306-5.5221-1.0981-1.7507-0.72515-3.3415-1.7881-4.6814-3.128-1.3399-1.3399-2.4028-2.9307-3.128-4.6814-0.72524-1.7507-1.0986-3.6272-1.0986-5.5221v38.303h297v-38.303c1.1e-4 -0.60831-0.0432-1.2158-0.12971-1.818-0.0867-0.60188-0.21617-1.1968-0.38757-1.7802-0.1713-0.58356-0.38406-1.1541-0.63666-1.7074-0.25265-0.55324-0.54451-1.0877-0.87333-1.5994-0.32894-0.51167-0.69402-0.99919-1.0924-1.4588-0.39819-0.45973-0.82872-0.89043-1.2883-1.2888-0.45966-0.39824-0.94717-0.76315-1.4588-1.0919-0.51165-0.32882-1.0461-0.62068-1.5994-0.87334-0.55323-0.25277-1.1238-0.4657-1.7074-0.63717-0.58362-0.17125-1.1787-0.3006-1.7808-0.38705-0.60195-0.0866-1.2093-0.13014-1.8175-0.13023-1.6774 6e-5 -3.3384 0.33053-4.8881 0.97255-1.5495 0.64178-2.9574 1.5824-4.1434 2.7683-1.1861 1.1861-2.127 2.5942-2.7688 4.1439-0.64178 1.5496-0.97208 3.2104-0.97204 4.8876-3e-5 1.3433-0.26467 2.6735-0.77876 3.9145-0.5141 1.2409-1.2676 2.3684-2.2174 3.3181-0.9497 0.94982-2.0773 1.7033-3.3181 2.2174-1.241 0.51409-2.5712 0.77873-3.9145 0.77876-1.3433-3e-5 -2.6735-0.26467-3.9145-0.77876-1.2409-0.5141-2.3684-1.2676-3.3181-2.2174-0.94982-0.9497-1.7033-2.0773-2.2174-3.3181-0.5141-1.241-0.77873-2.5712-0.77876-3.9145-2e-5 -0.64579-0.0423-1.2909-0.12661-1.9312-0.0842-0.64024-0.21021-1.2743-0.37724-1.8981-0.16716-0.62391-0.375-1.2362-0.62218-1.833-0.24726-0.59649-0.5333-1.1762-0.85628-1.7353-0.32279-0.55928-0.68185-1.0968-1.0749-1.6092-0.39325-0.5124-0.81963-0.99852-1.2764-1.4552-0.45653-0.45658-0.94248-0.8828-1.4547-1.2759-0.51235-0.3932-1.0499-0.75244-1.6092-1.0754-0.5593-0.32283-1.1392-0.6087-1.7358-0.85576-0.59658-0.24716-1.2087-0.45501-1.8324-0.62219-0.62377-0.1672-1.2578-0.29339-1.8981-0.37775-0.64026-0.0843-1.2854-0.1266-1.9312-0.12661-1.943 6e-5 -3.8671 0.38287-5.6622 1.1266-1.7949 0.7435-3.4259 1.8333-4.7997 3.207-1.3738 1.3738-2.4635 3.0048-3.207 4.7997-0.74368 1.7951-1.1265 3.7191-1.1266 5.6622 1e-5 1.3305-0.35022 2.6377-1.0154 3.79-0.66528 1.1523-1.6222 2.1092-2.7745 2.7745-1.1524 0.6653-2.4598 1.0155-3.7905 1.0154-1.3305 0-2.6377-0.35022-3.79-1.0154-1.1523-0.66529-2.1092-1.6222-2.7745-2.7745-0.66522-1.1523-1.0154-2.4594-1.0154-3.79-1.3e-4 2.07-0.32608 4.1271-0.96583 6.0958-0.63962 1.9688-1.5852 3.8247-2.8019 5.4994-1.2167 1.6746-2.6895 3.1474-4.3641 4.3641-1.6747 1.2167-3.5307 2.1623-5.4994 2.8019-1.9686 0.63976-4.0258 0.9657-6.0958 0.96583-2.0701-7e-5 -4.1275-0.32602-6.0963-0.96583-1.9686-0.63967-3.8243-1.5852-5.4989-2.8019-1.6748-1.2166-3.1478-2.6894-4.3646-4.3641-1.2167-1.6747-2.1623-3.5307-2.8019-5.4994-0.63958-1.9686-0.96535-4.0258-0.96531-6.0958 2e-5 -0.63131-0.0451-1.2618-0.13488-1.8867-0.0898-0.62476-0.22421-1.2423-0.40204-1.848-0.17782-0.60581-0.3987-1.1982-0.66094-1.7725-0.26223-0.57415-0.56514-1.1288-0.90641-1.6598-0.34138-0.53106-0.72028-1.0371-1.1338-1.5141-0.41338-0.47707-0.86032-0.92401-1.3374-1.3374-0.47706-0.41349-0.98307-0.79239-1.5141-1.1338-0.531-0.34126-1.0857-0.64418-1.6598-0.90641-0.57434-0.26224-1.1667-0.48312-1.7725-0.66094-0.60562-0.17783-1.2232-0.31219-1.848-0.40204-0.62488-0.0898-1.2554-0.1349-1.8867-0.13488-1.7409 5e-5 -3.4647 0.34299-5.0731 1.0092-1.6083 0.66624-3.0696 1.6428-4.3005 2.8737-1.231 1.2309-2.2075 2.6922-2.8737 4.3005-0.66625 1.6083-1.0092 3.3322-1.0092 5.0731-2e-5 -0.37685-0.0371-0.7528-0.11059-1.1224-0.0734-0.36968-0.18298-0.73127-0.32711-1.0795-0.14424-0.3482-0.32235-0.6814-0.53175-0.99477-0.20945-0.31333-0.44918-0.60534-0.71572-0.87179-0.26645-0.26654-0.55845-0.50627-0.87178-0.71571-0.31337-0.2094-0.64657-0.38752-0.99477-0.53175-0.34826-0.14413-0.70985-0.2537-1.0795-0.32712-0.3696-0.0735-0.74556-0.11057-1.1224-0.11058-1.0099-1.1e-4 -2.0021 0.26563-2.8768 0.77049-0.87464 0.5051-1.6009 1.2316-2.1058 2.1063-0.50504 0.87464-0.77096 1.8668-0.77101 2.8768-5e-5 1.8639-0.28972 3.7164-0.85835 5.4891-0.56849 1.7726-1.4089 3.4437-2.4903 4.9516-1.0815 1.508-2.3907 2.8343-3.8794 3.93-1.4887 1.0957-3.1385 1.9473-4.8886 2.5234-1.7498 0.57589-3.5784 0.86922-5.4183 0.8692-1.84 8e-5 -3.6688-0.29326-5.4188-0.8692-1.7499-0.57609-3.3995-1.4277-4.8881-2.5234-1.4886-1.0957-2.7978-2.422-3.8794-3.93-1.0816-1.5079-1.9221-3.179-2.4908-4.9516-0.56862-1.7727-0.8583-3.6251-0.85834-5.4891 1.08e-4 -0.47848-0.03739-0.95625-0.11214-1.4288-0.07493-0.47262-0.1869-0.93864-0.33486-1.3937-0.1478-0.45498-0.33113-0.89768-0.54829-1.324-0.21722-0.42618-0.46759-0.83466-0.74879-1.2216-0.2812-0.38709-0.5924-0.75151-0.93069-1.0898-0.33834-0.3383-0.70276-0.6495-1.0899-0.9307-0.38697-0.2812-0.79545-0.53157-1.2216-0.74879-0.42644-0.21717-0.8693-0.40051-1.3245-0.54828-0.4549-0.14794-0.92075-0.25991-1.3932-0.33487-0.4726-0.0747-0.95038-0.11224-1.4289-0.11214-1.1993-3e-5 -2.3869 0.23616-3.4949 0.69505-1.1081 0.45893-2.115 1.1317-2.9631 1.9797-0.84806 0.84811-1.5208 1.855-1.9797 2.9631-0.4589 1.108-0.69508 2.2956-0.69505 3.4949-1.6e-5 -0.81315-0.04262-1.6258-0.12764-2.4345-0.08501-0.80862-0.21231-1.6123-0.38137-2.4076-0.16906-0.79543-0.37968-1.5815-0.63097-2.3549-0.25119-0.77314-0.54272-1.5326-0.87333-2.2753-0.33079-0.7428-0.70028-1.4678-1.1069-2.172-0.40651-0.70431-0.84966-1.3869-1.3276-2.0448-0.47799-0.65782-0.99014-1.2902-1.5343-1.8944-0.54398-0.60415-1.1193-1.1794-1.7234-1.7234-0.60425-0.54414-1.2366-1.0563-1.8945-1.5343-0.65778-0.47789-1.3402-0.92104-2.0443-1.3276-0.70416-0.40645-1.4292-0.77577-2.172-1.1064-0.74282-0.33081-1.5025-0.6225-2.2758-0.87385-0.77339-0.25128-1.5595-0.4619-2.3549-0.63096-0.79531-0.16907-1.599-0.29637-2.4076-0.38138-0.80852-0.085-1.621-0.1276-2.434-0.12764z" fill="#252525" stroke-linecap="round" stroke-linejoin="round" stroke-width="2.6458"/>
</svg>
