<svg width="500" height="500" viewBox="0 0 500 500" fill="none" xmlns="http://www.w3.org/2000/svg">
<g clip-path="url(#clip0_1_2)">
<path d="M43.4937 130.773L250 11.547L456.506 130.773V369.227L250 488.453L43.4937 369.227V130.773Z" fill="#0048BD" stroke="#146EEB" stroke-width="20"/>
<path d="M87.992 145.956L220.992 69.0777C232.992 62.1413 248 70.801 248 84.6616V88.4487C248 94.8816 244.567 100.825 238.995 104.04L129.006 167.495C122.196 171.424 118 178.689 118 186.551V313.449C118 321.311 122.196 328.576 129.006 332.505L238.995 395.96C244.567 399.175 248 405.118 248 411.551V415.338C248 429.199 232.992 437.859 220.992 430.922L87.992 354.044C82.4273 350.827 79 344.887 79 338.46V161.54C79 155.113 82.4273 149.173 87.992 145.956Z" fill="#F7F9FF" stroke="#D0E0F6" stroke-width="4" stroke-linecap="round"/>
<path d="M250 415.238V84.6616C250 69.261 266.676 59.6391 280.009 67.3462L413.009 144.225C419.192 147.799 423 154.399 423 161.54V338.493C423 345.617 419.211 352.203 413.052 355.783L410.332 357.365C396.938 365.153 380.157 355.408 380.281 339.915L380.723 284.684C380.846 269.279 364.238 259.524 350.843 267.135L303.12 294.25C296.864 297.804 293 304.445 293 311.639V413.493C293 420.617 289.211 427.203 283.052 430.783L280.052 432.528C266.719 440.28 250 430.66 250 415.238Z" fill="#F7F9FF" stroke="#D0E0F6" stroke-width="4" stroke-linecap="round"/>
<path d="M301.5 233.703L361.5 199.062C366.167 196.368 366.167 189.632 361.5 186.938L301.5 152.297C296.833 149.603 291 152.97 291 158.359L291 227.641C291 233.03 296.833 236.397 301.5 233.703Z" fill="#0048BD" stroke="#D0E0F6" stroke-width="4"/>
</g>
<defs>
<clipPath id="clip0_1_2">
<rect width="500" height="500" fill="white"/>
</clipPath>
</defs>
</svg>
